<svg width="159" height="36" viewBox="0 0 159 36" fill="none" xmlns="http://www.w3.org/2000/svg">
<path d="M0.264 35V1.112H7.8V35H0.264ZM6.072 35V28.376H22.824V35H6.072ZM26.4983 35V11.672H33.8423V35H26.4983ZM30.1943 8.456C29.0423 8.456 28.0823 8.072 27.3143 7.304C26.5783 6.504 26.2103 5.544 26.2103 4.424C26.2103 3.272 26.5783 2.312 27.3143 1.544C28.0823 0.775999 29.0423 0.391999 30.1943 0.391999C31.3463 0.391999 32.2903 0.775999 33.0263 1.544C33.7623 2.312 34.1303 3.272 34.1303 4.424C34.1303 5.544 33.7623 6.504 33.0263 7.304C32.2903 8.072 31.3463 8.456 30.1943 8.456ZM52.4539 35.48C50.8859 35.48 49.4459 35.16 48.1339 34.52C46.8219 33.848 45.7499 32.968 44.9179 31.88C44.0859 30.76 43.6059 29.512 43.4779 28.136V18.296C43.6059 16.92 44.0859 15.704 44.9179 14.648C45.7499 13.56 46.8219 12.712 48.1339 12.104C49.4459 11.496 50.8859 11.192 52.4539 11.192C54.6619 11.192 56.6139 11.72 58.3099 12.776C60.0379 13.832 61.3819 15.272 62.3419 17.096C63.3339 18.92 63.8299 21 63.8299 23.336C63.8299 25.672 63.3339 27.752 62.3419 29.576C61.3819 31.4 60.0379 32.84 58.3099 33.896C56.6139 34.952 54.6619 35.48 52.4539 35.48ZM39.0139 35V0.151999H46.3579V17.384L45.1579 23.048L46.2619 28.712V35H39.0139ZM51.1579 28.856C52.1819 28.856 53.0779 28.616 53.8459 28.136C54.6459 27.656 55.2699 27 55.7179 26.168C56.1659 25.336 56.3899 24.392 56.3899 23.336C56.3899 22.248 56.1659 21.288 55.7179 20.456C55.2699 19.624 54.6459 18.984 53.8459 18.536C53.0779 18.056 52.1819 17.816 51.1579 17.816C50.1339 17.816 49.2219 18.056 48.4219 18.536C47.6219 18.984 46.9979 19.624 46.5499 20.456C46.1339 21.288 45.9259 22.248 45.9259 23.336C45.9259 24.424 46.1499 25.384 46.5979 26.216C47.0459 27.048 47.6539 27.704 48.4219 28.184C49.2219 28.632 50.1339 28.856 51.1579 28.856ZM67.5608 35V11.672H74.9048V35H67.5608ZM74.9048 22.184L71.8328 19.784C72.4408 17.064 73.4648 14.952 74.9048 13.448C76.3448 11.944 78.3448 11.192 80.9048 11.192C82.0248 11.192 83.0008 11.368 83.8328 11.72C84.6968 12.04 85.4488 12.552 86.0888 13.256L81.7208 18.776C81.4008 18.424 81.0008 18.152 80.5208 17.96C80.0408 17.768 79.4968 17.672 78.8888 17.672C77.6728 17.672 76.6968 18.056 75.9608 18.824C75.2568 19.56 74.9048 20.68 74.9048 22.184ZM98.4131 35.528C96.2691 35.528 94.3651 35.096 92.7011 34.232C91.0691 33.336 89.7891 32.12 88.8611 30.584C87.9331 29.016 87.4691 27.224 87.4691 25.208V11.672H94.8131V25.112C94.8131 25.912 94.9411 26.6 95.1971 27.176C95.4851 27.752 95.9011 28.2 96.4451 28.52C96.9891 28.84 97.6451 29 98.4131 29C99.5011 29 100.365 28.664 101.005 27.992C101.645 27.288 101.965 26.328 101.965 25.112V11.672H109.309V25.16C109.309 27.208 108.845 29.016 107.917 30.584C106.989 32.12 105.709 33.336 104.077 34.232C102.445 35.096 100.557 35.528 98.4131 35.528ZM122.416 35.576C121.04 35.576 119.68 35.4 118.336 35.048C117.024 34.696 115.792 34.2 114.64 33.56C113.52 32.888 112.56 32.12 111.76 31.256L115.936 27.032C116.704 27.864 117.616 28.52 118.672 29C119.728 29.448 120.88 29.672 122.128 29.672C122.992 29.672 123.648 29.544 124.096 29.288C124.576 29.032 124.816 28.68 124.816 28.232C124.816 27.656 124.528 27.224 123.952 26.936C123.408 26.616 122.704 26.344 121.84 26.12C120.976 25.864 120.064 25.592 119.104 25.304C118.144 25.016 117.232 24.616 116.368 24.104C115.504 23.592 114.8 22.888 114.256 21.992C113.712 21.064 113.44 19.896 113.44 18.488C113.44 16.984 113.824 15.688 114.592 14.6C115.36 13.48 116.448 12.6 117.856 11.96C119.264 11.32 120.912 11 122.8 11C124.784 11 126.608 11.352 128.272 12.056C129.968 12.728 131.344 13.736 132.4 15.08L128.224 19.304C127.488 18.44 126.656 17.832 125.728 17.48C124.832 17.128 123.952 16.952 123.088 16.952C122.256 16.952 121.632 17.08 121.216 17.336C120.8 17.56 120.592 17.896 120.592 18.344C120.592 18.824 120.864 19.208 121.408 19.496C121.952 19.784 122.656 20.04 123.52 20.264C124.384 20.488 125.296 20.76 126.256 21.08C127.216 21.4 128.128 21.832 128.992 22.376C129.856 22.92 130.56 23.656 131.104 24.584C131.648 25.48 131.92 26.664 131.92 28.136C131.92 30.408 131.056 32.216 129.328 33.56C127.632 34.904 125.328 35.576 122.416 35.576Z" fill="#0C0C0C"/>
<path d="M135.473 22.664V15.272H158.945V22.664H135.473ZM143.441 6.584H151.025V31.256H143.441V6.584Z" fill="#7441A1"/>
</svg>
